# xmcd CD database file
# Copyright (C) 1993-1998 Ti Kan
#
# Track frame offsets:
#  182
#  9567
#  20225
#  31125
#  40902
#  56260
#  63645
#  73795
#  84240
#  92357
#  105422
#  115687
#  126812
#  136375
#  147982
#  160992
#  169955
#  180210
#  190172
#  199910
#  210352
#  219302
#  228460
#  239677
#  251580
#
# Disc length: 3556 seconds
#
# Revision: 1
# Processed by: cddbd v1.4b41PL1 Copyright (c) Steve Scherf et al.
# Submitted via: CDWizzard Release:4.35
#
DISCID=580de219
DTITLE=Various Artist - The Doo Wop Box - Vol. 4
DYEAR=1900
DGENRE=
TTITLE0=Boss-Tones - Mope-itty Mope 
TTITLE1=The Fascinators with Jesse Stone Orch. - Oh Rose Marie 
TTITLE2=Passions - Just to be With You 
TTITLE3=Little Anthony and The Imperials - Shimmy, Shimmy, Ko-ko-Bop 
TTITLE4=Jesters - The Wind 
TTITLE5=Maurice Williams and the Zodiacs - Stay 
TTITLE6=Capris - There's a Moon Out Tonight 
TTITLE7=Marcels - Blue Moon 
TTITLE8=Tokens - Tonight I Fell In Love 
TTITLE9=Shep and The Limelites - Daddy's Home 
TTITLE10=Regents - Barbara-Ann 
TTITLE11=Edsels - Rama Lama Ding Dong 
TTITLE12=Velvets, featuring Virgil Johnson - Tonight (Could be the Night)
TTITLE12=
TTITLE13=Jive Five - My True Story
TTITLE14=Halos - Nag 
TTITLE15=Earls - Lookin' for My Baby 
TTITLE16=Quotations - Imagination 
TTITLE17=Excellents - Coney Island Baby 
TTITLE18=Earls - Remember Then 
TTITLE19=Five Discs - Never Let You Go 
TTITLE20=Randy and The Rainbows - Denise 
TTITLE21=Vito and the Salutations - Unchained Melody 
TTITLE22=Marvelows - I Do 
TTITLE23=Capris - Morse Code of Love 
TTITLE24=Johnny Maestro and the Brooklyn Bridge - My Juanita (live) 
EXTD=
EXTT0=
EXTT1=
EXTT2=
EXTT3=
EXTT4=
EXTT5=
EXTT6=
EXTT7=
EXTT8=
EXTT9=
EXTT10=
EXTT11=
EXTT12=
EXTT13=
EXTT14=
EXTT15=
EXTT16=
EXTT17=
EXTT18=
EXTT19=
EXTT20=
EXTT21=
EXTT22=
EXTT23=
EXTT24=
PLAYORDER=
